<svg width="16" height="16" viewBox="0 0 16 16" fill="none" xmlns="http://www.w3.org/2000/svg">
<path d="M11.7 2.53287C12.1881 2.04488 12.9794 2.04477 13.4675 2.53287C13.9555 3.02098 13.9555 3.81233 13.4675 4.30045L9.76831 7.99966L13.4675 11.6999C13.9554 12.188 13.9556 12.9794 13.4675 13.4674C12.9795 13.9555 12.1881 13.9553 11.7 13.4674L7.99976 9.76822L4.30054 13.4674C3.81242 13.9554 3.02107 13.9554 2.53296 13.4674C2.04486 12.9793 2.04497 12.188 2.53296 11.6999L6.23218 7.99966L2.53296 4.30045C2.0448 3.81229 2.0448 3.02102 2.53296 2.53287C3.02111 2.04471 3.81238 2.04471 4.30054 2.53287L7.99976 6.23209L11.7 2.53287Z" fill="black"/>
</svg>
