<svg width="16" height="16" viewBox="0 0 16 16" fill="none" xmlns="http://www.w3.org/2000/svg">
<path d="M8.09277 0.5C10.0967 0.500095 10.7234 1.28717 11.0547 2.32031C14.6808 2.77953 15.5 4.37006 15.5 8.41699C15.4999 13.4167 14.2499 14.667 8 14.667C1.75014 14.667 0.500054 13.4167 0.5 8.41699C0.5 4.2995 1.34811 2.72438 5.1377 2.29688C5.47104 1.27522 6.10372 0.5 8.09277 0.5ZM8 6.33301C7.53976 6.33301 7.16699 6.70676 7.16699 7.16699V8H6.33301C5.87303 8.00018 5.50018 8.37303 5.5 8.83301C5.5 9.29314 5.87292 9.66682 6.33301 9.66699H7.16699V10.5C7.16699 10.9602 7.53976 11.333 8 11.333C8.46024 11.333 8.83301 10.9602 8.83301 10.5V9.66699H9.66699C10.1271 9.66682 10.5 9.29314 10.5 8.83301C10.4998 8.37303 10.127 8.00018 9.66699 8H8.83301V7.16699C8.83301 6.70676 8.46024 6.33301 8 6.33301ZM3.83301 4.66699C3.37292 4.66717 3 5.03987 3 5.5C3 5.96013 3.37292 6.33283 3.83301 6.33301C4.29325 6.33301 4.66699 5.96024 4.66699 5.5C4.66699 5.03976 4.29325 4.66699 3.83301 4.66699Z" fill="black"/>
</svg>
